<?xml version="1.0" encoding="utf-8"?>

<!-- License Agreement at http://iconmonstr.com/license/ -->

<!DOCTYPE svg PUBLIC "-//W3C//DTD SVG 1.1//EN" "http://www.w3.org/Graphics/SVG/1.1/DTD/svg11.dtd">
<svg version="1.1" xmlns="http://www.w3.org/2000/svg" xmlns:xlink="http://www.w3.org/1999/xlink" x="0px" y="0px"
   width="512px" height="512px" viewBox="0 0 512 512" style="enable-background:new 0 0 512 512;" xml:space="preserve">
<path id="zip-15-icon" d="M256,50L67.166,153v208.246L256,462l188.834-100.754V154.123L256,50z M238.833,413.92L101.5,340.66
  V191.281l137.333,74.902V413.92z M410.5,340.66l-137.334,73.26V245.807l-152.22-83.025l134.97-73.621L410.5,174.458V340.66z
   M334.826,266.201l28.146-15.75l-0.1,10.703l-28.148,15.768L334.826,266.201z M363.208,229.026l-28.164,15.775l-0.101,10.704
  l28.164-15.767L363.208,229.026z M363.208,208.599l-28.164,15.775l-0.101,10.704l28.164-15.767L363.208,208.599z M298.883,195.196
  l28.231-16.479l-8.901-4.686l-28.248,16.463L298.883,195.196z M371.121,303.862l-8.35-32.021l-28.164,15.775l-8.985,41.744
  c-3.923,18.977,7.242,22.463,22.498,13.931C363.342,334.759,374.708,318.631,371.121,303.862z M348.203,332.781
  c-7.057,3.955-14.098,4.492-14.031-2.348c0.084-7.024,7.242-14.619,14.334-18.592c6.99-3.906,13.897-4.309,13.83,2.834
  C362.27,321.516,355.229,328.841,348.203,332.781z M273.553,150.368l-8.902-4.703l-28.265,16.479l8.918,4.711L273.553,150.368z
   M246.779,136.194l-28.265,16.479l8.985,4.761l28.265-16.488L246.779,136.194z M280.979,185.716l28.215-16.455l-8.835-4.71
  l-28.281,16.454L280.979,185.716z M332.496,215.657l28.264-16.488l-8.918-4.694l-28.231,16.471L332.496,215.657z M228.992,126.789
  l-28.23,16.471l8.852,4.711l28.281-16.471L228.992,126.789z M263.191,176.328l28.266-16.488l-8.919-4.702l-28.231,16.471
  L263.191,176.328z M315.682,205.321l28.247-16.471l-8.885-4.711l-28.248,16.479L315.682,205.321z"/>
</svg>
